<?xml version="1.0" standalone="no"?>
<!DOCTYPE svg PUBLIC "-//W3C//DTD SVG 20010904//EN"
 "http://www.w3.org/TR/2001/REC-SVG-20010904/DTD/svg10.dtd">
<svg version="1.0" xmlns="http://www.w3.org/2000/svg"
 width="70.000000pt" height="70.000000pt" viewBox="0 0 70.000000 70.000000"
 preserveAspectRatio="xMidYMid meet">
<metadata>
Created by potrace 1.14, written by Peter Selinger 2001-2017
</metadata>
<g transform="translate(0.000000,70.000000) scale(0.100000,-0.100000)"
fill="#000000" stroke="none">
<path d="M95 501 c-71 -44 -98 -102 -83 -181 21 -115 150 -166 251 -99 55 36
60 43 52 68 -10 31 -35 33 -74 7 -52 -36 -81 -40 -118 -17 -62 39 -54 127 15
159 31 15 35 15 69 -3 19 -11 72 -59 116 -108 94 -103 145 -137 206 -137 49 0
85 17 122 57 32 34 41 59 41 119 0 51 -32 102 -86 135 -44 28 -122 22 -174
-15 -47 -32 -57 -58 -31 -82 18 -16 21 -16 56 9 54 37 82 41 120 18 87 -54 25
-193 -73 -161 -32 11 -50 28 -166 151 -91 98 -172 124 -243 80z"/>
</g>
</svg>
