<svg 
 xmlns="http://www.w3.org/2000/svg"
 xmlns:xlink="http://www.w3.org/1999/xlink"
 width="61px" height="30px">
<path fill-rule="evenodd"  fill="rgb(33, 37, 41)"
 d="M45.875,6.877 C43.941,7.44 41.625,8.361 38.925,10.827 C38.224,11.394 37.441,11.661 36.574,11.627 C35.675,11.561 34.941,11.210 34.375,10.577 C33.774,9.911 33.491,9.127 33.524,8.228 C33.591,7.361 33.958,6.627 34.625,6.27 C38.891,2.161 42.641,0.294 45.875,0.427 C49.875,0.427 53.307,1.861 56.175,4.728 C59.8,7.561 60.425,10.978 60.425,14.978 C60.425,19.11 59.8,22.444 56.175,25.277 C53.307,28.144 49.875,29.577 45.875,29.577 C42.141,29.711 37.941,27.561 33.274,23.127 C31.941,21.860 30.658,20.494 29.425,19.27 L29.374,18.928 L28.224,17.428 C28.124,17.327 28.24,17.211 27.925,17.77 C26.558,15.311 24.941,13.544 23.74,11.777 C19.841,8.710 17.191,7.77 15.124,6.877 C12.891,6.877 10.991,7.677 9.425,9.277 C7.824,10.844 7.24,12.744 7.24,14.978 C7.24,17.211 7.824,19.127 9.425,20.728 C10.991,22.327 12.891,23.127 15.124,23.127 C17.91,22.961 19.541,21.594 22.474,19.27 C23.141,18.428 23.907,18.161 24.774,18.228 C25.675,18.294 26.425,18.661 27.24,19.327 C27.591,19.994 27.858,20.777 27.824,21.678 C27.758,22.544 27.391,23.277 26.724,23.877 C22.224,27.811 18.358,29.711 15.124,29.577 C11.91,29.577 7.657,28.144 4.824,25.277 C1.991,22.444 0.574,19.11 0.574,14.978 C0.574,10.978 1.991,7.561 4.824,4.728 C7.657,1.861 11.91,0.427 15.124,0.427 C18.524,0.228 22.657,2.460 27.524,7.127 C29.558,9.27 31.307,10.944 32.774,12.877 C32.908,12.978 33.8,13.94 33.74,13.228 L34.375,14.877 C35.474,16.144 36.591,17.327 37.724,18.428 C40.824,21.394 43.541,22.961 45.875,23.127 C48.108,23.127 50.24,22.327 51.625,20.728 C53.191,19.127 53.974,17.211 53.974,14.978 C53.974,12.744 53.191,10.844 51.625,9.277 C50.24,7.677 48.108,6.877 45.875,6.877 Z"/>
</svg>